<svg width="10" height="9" viewBox="0 0 10 9" fill="none" xmlns="http://www.w3.org/2000/svg">
<path d="M1 3.39627V1.04087C1.00068 1.03992 1.00138 1.03896 1.00212 1.03799L1.00103 2.00048C1.00051 2.46576 1.00018 2.93102 1 3.39627ZM2.00291 1.00161L1.14692 1L1.34199 1.00001L2.24828 1.00005L2.81644 1.00011C2.76513 1.00027 2.71395 1.00043 2.66291 1.00059C2.43915 1.00131 2.2183 1.00202 2.00291 1.00161ZM4.01116 1.00486C3.85812 1.00242 3.70409 1.00098 3.54987 1.0002L4.99872 1.00037C5.54897 1.00047 6.09924 1.0006 6.60792 1.00076C6.54675 1.00085 6.48563 1.00094 6.42458 1.00104C6.28255 1.00126 6.14086 1.00148 5.99965 1.00161L5.0037 1.00254L5.00059 1.99848C5.00003 2.17727 4.99972 2.35254 4.99957 2.52544C4.99883 2.34785 4.99744 2.16979 4.9951 1.99157L4.98232 1.02037L4.01116 1.00486ZM8.00381 1.00288C7.88967 1.00213 7.7755 1.00158 7.66134 1.00119C7.69122 1.0012 7.72073 1.00122 7.74988 1.00124C8.12518 1.00144 8.43781 1.00168 8.65667 1.00195L8.73879 1.0021L8.74294 1.00445L8.96049 1.00318C8.96295 1.00501 8.9655 1.00702 8.96811 1.00922L8.00381 1.00288ZM8.99688 1.03958C8.99735 1.04022 8.99781 1.04085 8.99826 1.04147V3.25926C8.99826 3.25526 8.99825 3.25125 8.99825 3.24725C8.99782 2.83189 8.99739 2.41691 8.99724 2.00248L8.99688 1.03958ZM8.99473 6.99918C8.99642 6.65124 8.99755 6.30322 8.99826 5.95522V7.95779C8.99584 7.9612 8.99308 7.96479 8.98999 7.96845L8.99473 6.99918ZM8.96856 7.99004C8.96595 7.99226 8.96341 7.9943 8.96097 7.99614L7.21391 7.997C7.47569 7.99632 7.73743 7.99543 7.99911 7.99429L8.96856 7.99004ZM3.88084 7.99819C4.0037 7.99828 4.12658 7.99838 4.24949 7.99847L1.04108 8.00005C1.04102 8.00001 1.04096 7.99997 1.0409 7.99993C1.03991 7.99922 1.0389 7.99849 1.03788 7.99772L2.00134 7.99742C2.62691 7.99723 3.25356 7.99771 3.88084 7.99819ZM1.00175 7.96157C1.00115 7.96076 1.00057 7.95996 1 7.95917V5.17709C1.0002 5.78412 1.00058 6.39114 1.00103 6.99817L1.00175 7.96157ZM4.99932 3.50345C4.99947 3.44857 4.99961 3.39358 4.99974 3.3385C4.99977 3.37619 4.99981 3.41386 4.99984 3.45151C5 3.63438 5.00016 3.81691 5.0002 4.00059C4.99953 4.0006 4.99886 4.0006 4.99819 4.0006C4.99839 3.85044 4.9988 3.69969 4.9992 3.54814L4.99932 3.50345ZM0.998352 1H0.998263V0.996523V0L0.998351 0.996523L0.998352 1Z" stroke="#FFDD2D" stroke-width="2"/>
</svg>
