
<svg width="68" height="56" viewBox="0 0 68 56" fill="none" xmlns="http://www.w3.org/2000/svg"
     class="segmented-buttons_icon">
    <path d="M52 17a3 3 0 1 0 0 6 3 3 0 0 0 0-6Zm0 4a1 1 0 1 1 0-2 1 1 0 0 1 0 2ZM51.734 35.684 46.414 41 45 39.586l5.32-5.318 1.414 1.416Z"
          fill="#2B6BF3"></path>
    <path d="M47 32h2V29.83l2-2.001v5l4 4V41h2v-4c0-.55-.318-1.319-.707-1.707L53 31.998V25h-2l-3.293 3.293C47.318 28.68 47 29.45 47 30v2Z"
          fill="#2B6BF3"></path>
    <path d="M56 31h5l1-2h-5.5L54 26v2.5l2 2.5Z" fill="#2B6BF3"></path>
    <path fill-rule="evenodd" clip-rule="evenodd"
          d="M60.823 21h-.143l-.574.002h-.105v1.155l-.001.24v1.78l.001 1.82 1.884.001h.366l1.4.001h.43a608.834 608.834 0 0 0 1.91-.005h.004a360.193 360.193 0 0 0 .004-2.19V22.25l-.002-1.243v-.005L65.66 21H64v.003l-.001.525v2.277l-.001.168V24H63.333a99.824 99.824 0 0 1-1.33-.002l-.001-.006L62 23.76v-.048c-.003-.388-.002-.776 0-1.164v-.72a103.622 103.622 0 0 0-.005-.823 930.8 930.8 0 0 0-.443-.005h-.729Zm.715-2a15475.187 15475.187 0 0 1 5.465.003c.037 0 .073.002.109.007.441.061.858.496.885.94l.001.046V27c0 .04-.003.08-.009.119-.064.42-.46.815-.88.87a.753.753 0 0 1-.106.007L58.998 28c-.02 0-.04 0-.06-.002-.46-.036-.904-.482-.936-.943A.778.778 0 0 1 58 27v-7c0-.02 0-.04.002-.06.037-.48.517-.94.996-.94h2.54Z"
          fill="#FFDD2D"></path>
    <path d="M24 28.998a5.995 5.995 0 0 0-1.35.16L20.5 24H23v1h1.999v-2a1 1 0 0 0-1-1h-4.998a1 1 0 0 0-.92 1.38l.67 1.62h-6.748l-.62-2h1.62V21H7.005v2h2.259l.81 2.619-2.07 3.73a5.998 5.998 0 1 0 3.909 6.648h2.09a1 1 0 0 0 .83-.45l5.118-7.678.86 2.049a5.999 5.999 0 1 0 3.188-.92Zm-11.417-2h5.548l-3.799 5.69-1.75-5.69Zm-1.7 1.27 1.77 5.73h-.74a5.999 5.999 0 0 0-2.17-3.68l1.14-2.05Zm-2.129 3.84a4 4 0 0 1 1.11 1.89h-2.16l1.05-1.89Zm-2.75 6.888a3.998 3.998 0 1 1 0-7.998c.339.004.675.051 1 .14l-1.869 3.369a1 1 0 0 0 .87 1.49h3.859a3.999 3.999 0 0 1-3.86 2.999Zm17.995 0a3.998 3.998 0 0 1-2.41-7.168l1.48 3.559 1.85-.77-1.48-3.56c.185-.032.372-.052.56-.06a3.998 3.998 0 1 1 0 7.999Z"
          fill="#2B6BF3"></path>
    <path d="m42.061 9 .939.253L32.939 47 32 46.747 42.061 9Z" fill="#C2D2F4"></path>
    <path d="m42.061 9 .939.253L32.939 47 32 46.747 42.061 9Z" fill="#B7C6E7"></path>
</svg>